<svg width="133" height="48" viewBox="0 0 133 48" fill="none" xmlns="http://www.w3.org/2000/svg">
<g clip-path="url(#clip0_2_226)">
<path d="M14.635 5.99927H3.05176e-05V40.9993L14.635 5.99927Z" fill="#184E7F" fill-opacity="0.6"/>
<path d="M24.9332 5.99982H39.5491V40.9998L24.9332 5.99982Z" fill="#184E7F" fill-opacity="0.6"/>
<path d="M19.7847 18.8998L29.0996 41H22.9882L20.2042 33.9638H13.3873L19.7847 18.8998Z" fill="#184E7F" fill-opacity="0.6"/>
<path d="M63.4241 28.2578L65.1498 33.2061C65.207 33.33 65.2928 33.3872 65.4454 33.3872H68.7633C68.9444 33.3872 68.973 33.3014 68.9444 33.1203L62.0893 14.0805C62.0607 13.928 62.0321 13.8994 61.8796 13.8994H57.7608C57.6464 13.8994 57.5796 13.9852 57.5796 14.1091C57.5224 15.1102 57.4366 15.4153 57.3127 15.7108L51.2013 33.0917C51.1727 33.3014 51.2394 33.3872 51.411 33.3872H54.3762C54.5573 33.3872 54.6431 33.33 54.7099 33.1489L56.3402 28.2578H63.4241ZM57.2841 25.0258C58.1803 22.318 59.3625 18.8476 59.8393 16.8645H59.8679C60.459 18.9429 61.851 23.0617 62.4802 25.0258H57.2841Z" fill="#184E7F" fill-opacity="0.6"/>
<path d="M77.7582 33.6828C79.5411 33.6828 81.4384 33.3586 83.3643 32.5291C83.5169 32.4719 83.5455 32.4052 83.5455 32.2622C83.4883 31.7283 83.4215 30.956 83.4215 30.3649V12.4406C83.4215 12.3262 83.4215 12.269 83.2785 12.269H80.0464C79.9225 12.269 79.8653 12.3262 79.8653 12.4787V18.552C79.36 18.4948 79.0072 18.4662 78.5877 18.4662C73.3725 18.4662 70.169 21.908 70.169 26.208C70.169 31.1943 73.4583 33.6828 77.7582 33.6828ZM79.8653 30.3649C79.3314 30.5365 78.7402 30.6032 78.1396 30.6032C75.7751 30.6032 73.8397 29.2684 73.8397 26.0268C73.8397 23.157 75.8323 21.4599 78.4733 21.4599C79.0072 21.4599 79.4744 21.5171 79.8653 21.6697V30.3649Z" fill="#184E7F" fill-opacity="0.6"/>
<path d="M93.8573 18.4661C89.4048 18.4661 86.6494 21.8794 86.6494 26.0935C86.6494 29.8595 88.8423 33.6827 93.7905 33.6827C97.976 33.6827 100.913 30.6031 100.913 25.9981C100.913 21.9366 98.4241 18.4661 93.8573 18.4661ZM93.6761 21.4599C96.1931 21.4599 97.261 23.6241 97.261 26.0935C97.261 29.1444 95.6878 30.6604 93.8573 30.6604C91.5977 30.6604 90.2629 28.7631 90.2629 26.0267C90.2629 23.2142 91.6835 21.4599 93.6761 21.4599Z" fill="#184E7F" fill-opacity="0.6"/>
<path d="M104.253 12.269C104.129 12.269 104.043 12.3262 104.043 12.4787V32.7675C104.043 32.8533 104.129 33.0058 104.253 33.0344C105.673 33.473 107.161 33.6828 108.696 33.6828C113.091 33.6828 117.362 30.956 117.362 25.4643C117.362 21.4885 114.635 18.4662 110.364 18.4662C109.382 18.4662 108.467 18.6188 107.666 18.8857L107.628 12.5073C107.628 12.2976 107.571 12.269 107.361 12.269H104.253ZM113.711 25.8266C113.711 29.1159 111.461 30.6604 109.029 30.6604C108.524 30.6604 108.076 30.6318 107.666 30.5079V21.8508C108.133 21.6697 108.696 21.5171 109.735 21.5171C112.08 21.5171 113.711 23.0045 113.711 25.8266Z" fill="#184E7F" fill-opacity="0.6"/>
<path d="M129.423 26.8943C130.872 26.8943 132.064 26.8657 132.474 26.7704C132.627 26.7418 132.684 26.6846 132.713 26.5607C132.798 26.2365 132.837 25.5596 132.837 24.7301C132.837 21.908 131.139 18.4661 126.754 18.4661C122.273 18.4661 119.784 22.1177 119.784 26.2365C119.784 29.8881 121.71 33.6827 127.106 33.6827C129.128 33.6827 130.434 33.3585 131.559 32.8246C131.673 32.7674 131.731 32.6721 131.731 32.5005V30.0311C131.731 29.8881 131.645 29.8595 131.559 29.9167C130.434 30.3934 129.214 30.6318 127.879 30.6318C124.856 30.6318 123.483 28.9633 123.398 26.8943H129.423ZM123.398 24.3392C123.636 22.89 124.551 21.3168 126.601 21.3168C128.861 21.3168 129.452 23.2142 129.452 24.0722C129.452 24.1008 129.452 24.2248 129.452 24.3106C129.328 24.3392 128.947 24.3392 127.822 24.3392H123.398Z" fill="#184E7F" fill-opacity="0.6"/>
</g>
<defs>
<clipPath id="clip0_2_226">
<rect width="133" height="48" fill="white"/>
</clipPath>
</defs>
</svg>
