<svg width="154" height="48" viewBox="0 0 154 48" fill="none" xmlns="http://www.w3.org/2000/svg">
<g clip-path="url(#clip0_2_247)">
<path d="M61.7106 25.6627L59.0335 18.6563C58.9243 18.3697 58.5068 18.3697 58.3973 18.6563L55.7206 25.6632C55.7016 25.713 55.6953 25.7665 55.7022 25.8192C55.7092 25.8719 55.7291 25.9222 55.7603 25.9658C55.7916 26.0094 55.8333 26.045 55.8818 26.0696C55.9302 26.0941 55.9841 26.107 56.0389 26.107H61.3924C61.4471 26.107 61.501 26.0941 61.5495 26.0695C61.598 26.0449 61.6396 26.0092 61.6709 25.9656C61.7021 25.922 61.722 25.8717 61.7289 25.819C61.7358 25.7663 61.7294 25.7128 61.7104 25.663L61.7106 25.6627ZM62.9473 29.601H54.4842C54.415 29.601 54.3474 29.6216 54.2905 29.6599C54.2337 29.6983 54.1903 29.7527 54.1662 29.8157L52.5001 34.1753C52.476 34.2383 52.4326 34.2927 52.3757 34.3311C52.3189 34.3695 52.2513 34.3901 52.1821 34.3901H48.5139C48.4585 34.3901 48.4039 34.3769 48.3549 34.3516C48.3059 34.3263 48.2641 34.2898 48.233 34.2452C48.2019 34.2006 48.1826 34.1493 48.1767 34.0958C48.1708 34.0423 48.1785 33.9881 48.1991 33.9382L56.6443 13.5121C56.6696 13.4511 56.7131 13.3988 56.7693 13.3621C56.8254 13.3253 56.8916 13.3056 56.9593 13.3057H60.4717C60.6101 13.3057 60.7347 13.3874 60.7865 13.5121L69.2315 33.938C69.2522 33.9879 69.26 34.0421 69.2541 34.0957C69.2482 34.1493 69.2289 34.2007 69.1979 34.2453C69.1668 34.29 69.1249 34.3266 69.0759 34.3518C69.0268 34.3771 68.9722 34.3903 68.9167 34.3903H65.2492C65.1799 34.3903 65.1123 34.3696 65.0555 34.3312C64.9986 34.2928 64.9552 34.2384 64.9312 34.1753L63.2648 29.8157C63.2407 29.7527 63.1973 29.6983 63.1405 29.6599C63.0836 29.6216 63.0161 29.601 62.9468 29.601H62.9473ZM70.9501 20.4742H74.0875C74.1774 20.4742 74.2637 20.5089 74.3273 20.5707C74.391 20.6325 74.4267 20.7162 74.4267 20.8036V34.0607C74.4267 34.1481 74.391 34.2318 74.3273 34.2936C74.2637 34.3554 74.1774 34.3901 74.0875 34.3901H70.9501C70.8601 34.3901 70.7738 34.3554 70.7102 34.2936C70.6466 34.2318 70.6109 34.1481 70.6109 34.0607V20.8034C70.6109 20.716 70.6466 20.6322 70.7102 20.5705C70.7738 20.5087 70.8601 20.474 70.9501 20.474V20.4742ZM85.8688 23.699C85.8688 23.7864 85.8331 23.8701 85.7694 23.9319C85.7058 23.9937 85.6195 24.0284 85.5296 24.0284H85.4346C83.8833 24.0284 82.7455 24.3898 82.0218 25.1127C81.2976 25.8356 80.9362 27.0305 80.9362 28.6972V34.0607C80.9362 34.1481 80.9004 34.2318 80.8368 34.2936C80.7732 34.3554 80.6869 34.3901 80.5969 34.3901H77.4903C77.4004 34.3901 77.3141 34.3554 77.2504 34.2936C77.1868 34.2318 77.1511 34.1481 77.1511 34.0607V20.8034C77.1511 20.716 77.1868 20.6322 77.2504 20.5705C77.3141 20.5087 77.4004 20.474 77.4903 20.474H80.5657C80.6557 20.474 80.742 20.5087 80.8056 20.5705C80.8692 20.6322 80.905 20.716 80.905 20.8034V23.4256H80.9671C81.3394 22.3413 81.9288 21.5085 82.7358 20.9257C83.542 20.3436 84.5349 20.0522 85.7137 20.0522H85.8688V23.6988V23.699ZM94.4472 23.5765C94.3573 23.5765 94.271 23.6112 94.2073 23.673C94.1437 23.7347 94.108 23.8185 94.108 23.9059V29.42C94.108 29.9824 94.2211 30.384 94.449 30.6249C94.6763 30.8658 95.0694 30.9863 95.6278 30.9863H95.9401C96.0301 30.9863 96.1164 31.021 96.18 31.0828C96.2436 31.1446 96.2794 31.2283 96.2794 31.3157V34.0906C96.2794 34.1779 96.2436 34.2617 96.18 34.3235C96.1164 34.3852 96.0301 34.4199 95.9401 34.4199H94.604C93.2183 34.4199 92.1532 34.0737 91.4087 33.3809C90.6639 32.6881 90.2917 31.6593 90.2917 30.2935V23.9059C90.2917 23.8185 90.2559 23.7347 90.1923 23.673C90.1287 23.6112 90.0424 23.5765 89.9524 23.5765H87.9941C87.9041 23.5765 87.8178 23.5418 87.7542 23.48C87.6906 23.4182 87.6548 23.3345 87.6548 23.2471V20.8034C87.6548 20.716 87.6906 20.6322 87.7542 20.5705C87.8178 20.5087 87.9041 20.474 87.9941 20.474H89.9527C90.0426 20.474 90.1289 20.4393 90.1925 20.3775C90.2562 20.3158 90.2919 20.232 90.2919 20.1446V15.231C90.2919 15.1437 90.3276 15.0599 90.3913 14.9981C90.4549 14.9363 90.5412 14.9016 90.6312 14.9016H93.7685C93.8585 14.9016 93.9448 14.9363 94.0084 14.9981C94.072 15.0599 94.1078 15.1437 94.1078 15.231V20.1446C94.1078 20.232 94.1435 20.3158 94.2071 20.3775C94.2707 20.4393 94.357 20.474 94.447 20.474H96.7157C96.8056 20.474 96.8919 20.5087 96.9555 20.5705C97.0192 20.6322 97.0549 20.716 97.0549 20.8034V23.2473C97.0549 23.3347 97.0192 23.4185 96.9555 23.4802C96.8919 23.542 96.8056 23.5767 96.7157 23.5767H94.4472V23.5765ZM108.813 30.2635C109.527 29.5406 109.884 28.5968 109.884 27.4319C109.884 26.2677 109.527 25.3235 108.813 24.6006C108.1 23.8778 107.164 23.5163 106.006 23.5163C104.847 23.5163 103.912 23.8778 103.198 24.6006C102.485 25.3235 102.128 26.2677 102.128 27.4319C102.128 28.5968 102.485 29.5406 103.198 30.2635C103.912 30.9863 104.847 31.3477 106.006 31.3477C107.164 31.3477 108.1 30.9863 108.813 30.2635ZM101.569 33.9683C100.515 33.3861 99.6818 32.5375 99.0721 31.4231C98.4616 30.3087 98.1568 28.9784 98.1568 27.4319C98.1568 25.8861 98.4616 24.5554 99.0721 23.441C99.6818 22.3266 100.515 21.4786 101.569 20.8958C102.624 20.3135 103.782 20.0223 105.044 20.0223C106.161 20.0223 107.117 20.2331 107.914 20.6547C108.71 21.0763 109.346 21.669 109.822 22.432H109.884V20.8034C109.884 20.716 109.919 20.6322 109.983 20.5705C110.047 20.5087 110.133 20.474 110.223 20.474H113.329C113.419 20.474 113.506 20.5087 113.569 20.5705C113.633 20.6322 113.668 20.716 113.668 20.8034V34.0605C113.668 34.1478 113.633 34.2316 113.569 34.2934C113.506 34.3552 113.419 34.3899 113.329 34.3899H110.223C110.133 34.3899 110.047 34.3552 109.983 34.2934C109.919 34.2316 109.884 34.1478 109.884 34.0605V32.4321H109.822C109.346 33.1955 108.71 33.7875 107.914 34.2091C107.117 34.6307 106.161 34.8415 105.044 34.8415C103.782 34.8415 102.624 34.5504 101.569 33.9683ZM126.588 30.2635C127.301 29.5406 127.658 28.5968 127.658 27.4319C127.658 26.2677 127.301 25.3235 126.588 24.6006C125.874 23.8778 124.938 23.5163 123.78 23.5163C122.622 23.5163 121.686 23.8778 120.972 24.6006C120.259 25.3235 119.902 26.2677 119.902 27.4319C119.902 28.5968 120.259 29.5406 120.972 30.2635C121.686 30.9863 122.622 31.3477 123.78 31.3477C124.938 31.3477 125.874 30.9863 126.588 30.2635ZM121.872 34.2091C121.076 33.7875 120.44 33.1955 119.964 32.4321H119.902V34.0605C119.902 34.1478 119.866 34.2316 119.803 34.2934C119.739 34.3552 119.653 34.3899 119.563 34.3899H116.425C116.335 34.3899 116.249 34.3552 116.186 34.2934C116.122 34.2316 116.086 34.1478 116.086 34.0605V13.6344C116.086 13.5471 116.122 13.4633 116.186 13.4015C116.249 13.3398 116.335 13.3051 116.425 13.3051H119.563C119.653 13.3051 119.739 13.3398 119.803 13.4015C119.866 13.4633 119.902 13.5471 119.902 13.6344V22.4318H119.964C120.44 21.6688 121.076 21.0763 121.872 20.6547C122.668 20.2329 123.625 20.0221 124.742 20.0221C126.003 20.0221 127.162 20.3133 128.217 20.8956C129.271 21.4784 130.104 22.3264 130.714 23.4406C131.324 24.5556 131.629 25.8863 131.629 27.4321C131.629 28.9787 131.324 30.3087 130.714 31.4233C130.104 32.5377 129.272 33.3864 128.217 33.9683C127.162 34.5506 126.003 34.842 124.742 34.842C123.625 34.842 122.668 34.6312 121.872 34.2094L121.872 34.2091ZM136.915 34.3901H133.778C133.688 34.3901 133.602 34.3554 133.538 34.2936C133.474 34.2318 133.439 34.1481 133.439 34.0607V13.6351C133.439 13.5477 133.474 13.464 133.538 13.4022C133.602 13.3404 133.688 13.3057 133.778 13.3057H136.915C137.005 13.3057 137.092 13.3404 137.155 13.4022C137.219 13.464 137.255 13.5477 137.255 13.6351V34.0607C137.255 34.1481 137.219 34.2318 137.155 34.2936C137.092 34.3554 137.005 34.3901 136.915 34.3901ZM144.316 23.6973C143.796 24.0912 143.444 24.6599 143.263 25.4039C143.213 25.6089 143.377 25.8057 143.595 25.8057H149.565C149.772 25.8057 149.935 25.6256 149.902 25.4271C149.782 24.7234 149.472 24.1623 148.969 23.7425C148.38 23.2506 147.609 23.0047 146.658 23.0047C145.706 23.0047 144.926 23.2355 144.316 23.6973ZM151.963 21.9652C153.183 23.2607 153.793 25.0931 153.793 27.4622V27.8557C153.793 27.9431 153.758 28.0269 153.694 28.0886C153.63 28.1504 153.544 28.1851 153.454 28.1851H143.479C143.43 28.1852 143.381 28.1958 143.336 28.2162C143.291 28.2366 143.251 28.2663 143.219 28.3033C143.187 28.3402 143.163 28.3834 143.151 28.43C143.138 28.4766 143.135 28.5253 143.144 28.5729C143.303 29.453 143.704 30.1521 144.347 30.6701C145.081 31.263 146.007 31.5588 147.123 31.5588C148.565 31.5588 149.9 31.0124 151.127 29.9196C151.277 29.7861 151.515 29.8144 151.631 29.9767L153.156 32.1022C153.204 32.1684 153.225 32.2492 153.215 32.3295C153.206 32.4097 153.166 32.4837 153.104 32.5375C152.356 33.1737 151.523 33.7106 150.629 34.134C149.636 34.6057 148.468 34.842 147.123 34.842C145.572 34.842 144.217 34.5354 143.059 33.9232C141.901 33.311 141.001 32.4476 140.36 31.3328C139.719 30.2184 139.399 28.9284 139.399 27.4622C139.399 25.9967 139.709 24.7016 140.329 23.5767C140.95 22.4524 141.818 21.5789 142.935 20.9562C144.052 20.3341 145.355 20.0225 146.844 20.0225C149.036 20.0225 150.742 20.6703 151.963 21.9652ZM74.8365 15.5731C74.8365 16.8155 73.7991 17.8228 72.5192 17.8228C71.2391 17.8228 70.2017 16.8155 70.2017 15.5729C70.2017 14.3303 71.2394 13.3231 72.5192 13.3231C73.7991 13.3231 74.8365 14.3303 74.8365 15.5729" fill="#184E7F" fill-opacity="0.6"/>
<path d="M17.8675 7.36422L2.94972 13.3573C2.12015 13.6906 2.12874 14.8349 2.96351 15.1561L17.9435 20.9237C19.2597 21.4305 20.7255 21.4305 22.0416 20.9237L37.0219 15.1559C37.8564 14.8349 37.8655 13.6908 37.0354 13.3575L22.1181 7.364C20.7571 6.81723 19.2283 6.81723 17.8673 7.364" fill="#184E7F" fill-opacity="0.6"/>
<path d="M21.3207 24.0726V38.481C21.3207 39.1661 22.0325 39.6355 22.6886 39.383L39.3809 33.0924C39.5671 33.0208 39.7268 32.8964 39.8393 32.7356C39.9518 32.5747 40.012 32.3848 40.0119 32.1904V17.7822C40.0119 17.0969 39.3002 16.6276 38.6441 16.8802L21.9517 23.1708C21.7656 23.2425 21.6059 23.3668 21.4934 23.5276C21.3809 23.6885 21.3208 23.8784 21.3207 24.0728" fill="#184E7F" fill-opacity="0.6"/>
<path d="M17.4232 24.8166L12.4693 27.1389L11.9663 27.375L1.50891 32.2399C0.846247 32.5503 -6.10352e-05 32.0813 -6.10352e-05 31.3664V17.8431C-6.10352e-05 17.5844 0.136542 17.3611 0.319736 17.1931C0.39489 17.1205 0.480153 17.0584 0.57304 17.0087C0.822726 16.8631 1.17916 16.8242 1.48222 16.9406L17.34 23.0411C18.146 23.3516 18.2094 24.4482 17.4232 24.8168" fill="#184E7F" fill-opacity="0.6"/>
<path d="M17.4247 24.8158L12.4708 27.1381L0.321228 17.1921C0.396397 17.1195 0.481659 17.0575 0.574533 17.0078C0.824219 16.8623 1.18065 16.8234 1.48372 16.9398L17.3415 23.0402C18.1475 23.3507 18.2109 24.4473 17.4247 24.816" fill="#184E7F" fill-opacity="0.6"/>
</g>
<defs>
<clipPath id="clip0_2_247">
<rect width="154" height="48" fill="white"/>
</clipPath>
</defs>
</svg>
