<svg width="128" height="48" viewBox="0 0 128 48" fill="none" xmlns="http://www.w3.org/2000/svg">
<g clip-path="url(#clip0_2_235)">
<path d="M44.172 24.0528C44.1762 22.2604 43.626 20.5106 42.5969 19.043C41.5678 17.5754 40.1102 16.462 38.4236 15.8551C38.5771 15.0728 38.6544 14.2775 38.6546 13.4803C38.6561 10.8415 37.8208 8.27022 36.2688 6.13609C34.7168 4.00197 32.5281 2.41495 30.0172 1.60321C27.5064 0.791464 24.8028 0.796814 22.2952 1.61849C19.7876 2.44016 17.6051 4.03583 16.0616 6.17608C14.9228 5.29362 13.5275 4.80632 12.0869 4.78801C10.6464 4.76969 9.23908 5.22135 8.07824 6.07456C6.9174 6.92778 6.06625 8.13607 5.65371 9.51641C5.24117 10.8968 5.28972 12.3739 5.79201 13.7242C4.10146 14.3404 2.64016 15.4595 1.60467 16.9311C0.569179 18.4026 0.00916976 20.156 -3.14355e-05 21.9553C-0.00472239 23.7539 0.54826 25.5097 1.58278 26.981C2.6173 28.4524 4.08249 29.5668 5.7766 30.1709C5.62664 30.9528 5.55014 31.747 5.54811 32.5432C5.54558 35.1789 6.38019 37.7474 7.93157 39.8782C9.48295 42.009 11.671 43.592 14.1801 44.3991C16.6892 45.2062 19.3898 45.1955 21.8925 44.3687C24.3952 43.5419 26.5707 41.9416 28.1052 39.7987C29.2407 40.6833 30.6336 41.1736 32.0729 41.195C33.5121 41.2165 34.9191 40.7681 36.0804 39.9177C37.2417 39.0673 38.0941 37.8614 38.5081 36.4828C38.9222 35.1043 38.8754 33.6283 38.3748 32.2788C40.0662 31.6636 41.5285 30.5448 42.5646 29.0731C43.6006 27.6014 44.1607 25.8475 44.1694 24.0477" fill="#EBF1F9"/>
<path d="M17.3641 19.9505L27.0303 24.3638L36.7864 15.8195C36.9269 15.1145 36.9966 14.3972 36.9943 13.6783C36.9938 11.351 36.2485 9.0849 34.8674 7.21166C33.4862 5.33841 31.5418 3.95636 29.3187 3.26772C27.0956 2.57909 24.7104 2.62003 22.5122 3.38456C20.314 4.14908 18.4182 5.59706 17.1022 7.5166L15.477 15.9222L17.3641 19.9505Z" fill="#184E7F" fill-opacity="0.6"/>
<path d="M7.36007 30.1869C7.21754 30.9029 7.14616 31.6314 7.14698 32.3615C7.14703 34.6985 7.8962 36.974 9.28454 38.8539C10.6729 40.7339 12.6273 42.1193 14.8609 42.8069C17.0945 43.4945 19.4897 43.448 21.6949 42.6742C23.9001 41.9005 25.7993 40.4402 27.1136 38.5078L28.7234 30.1201L26.5744 26.0123L16.8723 21.5912L7.36007 30.1869Z" fill="#184E7F" fill-opacity="0.6"/>
<path d="M7.30123 13.4603L13.9251 15.0239L15.3757 7.49112C14.4747 6.80796 13.3768 6.43502 12.2461 6.42814C11.1155 6.42125 10.013 6.7808 9.10382 7.45294C8.19462 8.12507 7.52761 9.07364 7.20266 10.1566C6.8777 11.2396 6.91229 12.3987 7.30123 13.4603Z" fill="#184E7F" fill-opacity="0.6"/>
<path d="M6.72531 15.0365C5.27197 15.5269 4.00759 16.4581 3.10801 17.7004C2.20844 18.9428 1.71841 20.4347 1.70606 21.9685C1.70501 23.4508 2.15518 24.8984 2.99671 26.1187C3.83825 27.3391 5.03129 28.2744 6.41722 28.8003L15.7112 20.3998L14.0039 16.7541L6.72531 15.0365Z" fill="#184E7F" fill-opacity="0.6"/>
<path d="M28.8134 38.5068C29.7129 39.1865 30.8081 39.557 31.9355 39.563C33.0629 39.569 34.162 39.2102 35.0687 38.5401C35.9753 37.87 36.6409 36.9246 36.966 35.845C37.2911 34.7655 37.2583 33.6098 36.8725 32.5504L30.2538 31.01L28.8134 38.5068Z" fill="#184E7F" fill-opacity="0.6"/>
<path d="M30.1588 29.2672L37.4451 30.9693C38.8992 30.4802 40.1645 29.5494 41.0643 28.3068C41.964 27.0641 42.4535 25.5716 42.4643 24.0374C42.463 22.5581 42.0119 21.1142 41.171 19.8973C40.33 18.6803 39.1389 17.7478 37.7557 17.2235L28.2256 25.5675L30.1588 29.2672Z" fill="#184E7F" fill-opacity="0.6"/>
<path d="M61.7613 31.9114L62.6445 31.8215L62.7061 33.6187C60.7408 33.9154 58.7576 34.0784 56.7703 34.1065C54.5794 34.1065 53.027 33.4723 52.113 32.204C51.199 30.9357 50.7429 28.9623 50.7446 26.2836C50.7446 20.9486 52.8653 18.2802 57.1066 18.2785C59.1605 18.2785 60.6924 18.8519 61.7022 19.9986C62.7121 21.1454 63.2187 22.9426 63.2221 25.3902L63.1015 27.1257H53.0578C53.0578 28.8099 53.3625 30.0577 53.9718 30.869C54.5811 31.6803 55.6406 32.0859 57.1503 32.0859C58.6633 32.0911 60.2003 32.0329 61.7613 31.9114ZM60.9397 25.308C60.9397 23.4407 60.641 22.1219 60.0437 21.3517C59.4464 20.5814 58.4725 20.1955 57.122 20.1938C55.7716 20.1938 54.7566 20.5994 54.0771 21.4107C53.3976 22.222 53.0476 23.5211 53.027 25.308H60.9397Z" fill="#184E7F" fill-opacity="0.6"/>
<path d="M66.4057 33.9858V13.9601H68.6881V33.9858H66.4057Z" fill="#184E7F" fill-opacity="0.6"/>
<path d="M83.0631 23.1771V30.8536C83.0631 31.6238 84.9578 31.5827 84.9578 31.5827L84.8423 33.6007C83.2376 33.6007 81.9103 33.7342 81.1144 32.9614C79.3909 33.7269 77.524 34.1164 75.6382 34.1039C74.2398 34.1039 73.1743 33.7077 72.4418 32.9152C71.7092 32.1227 71.3438 30.9837 71.3455 29.498C71.3455 28.0158 71.7212 26.9246 72.4726 26.2246C73.224 25.5245 74.4007 25.0966 76.0027 24.9409L80.7807 24.4864V23.1771C80.7807 22.1501 80.5582 21.409 80.1131 20.9537C79.8693 20.7248 79.5816 20.5477 79.2674 20.433C78.9533 20.3182 78.6191 20.2683 78.2852 20.2862H72.2877V18.2759H78.1337C79.859 18.2759 81.1118 18.6721 81.8923 19.4646C82.6728 20.2571 83.0631 21.4946 83.0631 23.1771ZM73.6844 29.385C73.6844 31.2524 74.4546 32.1861 75.995 32.1861C77.3847 32.1845 78.7641 31.9475 80.0746 31.4852L80.7729 31.2413V26.2194L76.2775 26.6456C75.3635 26.7278 74.7036 26.9914 74.298 27.4364C73.8923 27.8814 73.6878 28.5309 73.6844 29.385Z" fill="#184E7F" fill-opacity="0.6"/>
<path d="M91.9743 20.317C89.7612 20.317 88.6546 21.0872 88.6546 22.6276C88.6546 23.3397 88.9114 23.842 89.4248 24.1347C89.9383 24.4274 91.0945 24.7321 92.8934 25.0487C94.7008 25.3653 95.9794 25.8069 96.7291 26.3735C97.4788 26.94 97.8545 28.0046 97.8562 29.5673C97.8562 31.1317 97.3538 32.2785 96.3491 33.0076C95.3444 33.7368 93.8784 34.1022 91.9512 34.1039C90.6931 34.1039 86.4929 33.6366 86.4929 33.6366L86.6161 31.6597C89.0295 31.8908 90.7727 32.0628 91.9512 32.0628C93.1296 32.0628 94.0256 31.8754 94.6444 31.5006C95.2631 31.1257 95.5712 30.4967 95.5712 29.6135C95.5712 28.7303 95.3144 28.1321 94.7804 27.8164C94.2464 27.5006 93.0962 27.2027 91.3119 26.9178C89.5275 26.6328 88.2567 26.2169 87.507 25.67C86.7573 25.1232 86.3799 24.1065 86.3799 22.6251C86.3799 21.1437 86.8934 20.0577 87.9486 19.3388C89.0038 18.6199 90.2978 18.2733 91.8587 18.2733C93.0962 18.2733 97.3915 18.5891 97.3915 18.5891V20.5789C95.1245 20.4787 93.2708 20.317 91.9743 20.317Z" fill="#184E7F" fill-opacity="0.6"/>
<path d="M108.858 20.5583H104.018V27.8343C104.018 29.5784 104.145 30.7244 104.398 31.2721C104.655 31.8215 105.256 32.0936 106.208 32.0936L108.917 31.9113L109.071 33.7984C108.045 33.988 107.007 34.1004 105.964 34.1347C104.383 34.1347 103.287 33.7487 102.678 32.9768C102.069 32.2049 101.765 30.7338 101.766 28.5635V20.5583H99.615V18.5814H101.777V13.9242H104.028V18.5814H108.858V20.5583Z" fill="#184E7F" fill-opacity="0.6"/>
<path d="M112.031 16.6379V13.9884H114.313V16.6379H112.031ZM112.031 33.9858V18.5814H114.313V33.9858H112.031Z" fill="#184E7F" fill-opacity="0.6"/>
<path d="M124.2 18.2759C125.34 18.3246 126.476 18.4472 127.6 18.6431L128.329 18.7329L128.239 20.5891C127.046 20.438 125.846 20.3472 124.644 20.317C122.919 20.317 121.748 20.7278 121.13 21.5494C120.512 22.3709 120.202 23.8925 120.2 26.1142C120.2 28.3393 120.49 29.8865 121.068 30.756C121.647 31.6255 122.853 32.062 124.688 32.0654L128.282 31.7933L128.375 33.6803C126.976 33.9173 125.562 34.0597 124.144 34.1065C121.772 34.1065 120.134 33.4971 119.23 32.2785C118.326 31.0598 117.874 29.0059 117.874 26.1167C117.874 23.2259 118.361 21.1968 119.335 20.0295C120.309 18.8621 121.931 18.2776 124.2 18.2759Z" fill="#184E7F" fill-opacity="0.6"/>
</g>
<defs>
<clipPath id="clip0_2_235">
<rect width="128" height="48" fill="white"/>
</clipPath>
</defs>
</svg>
