<svg width="135" height="48" viewBox="0 0 135 48" fill="none" xmlns="http://www.w3.org/2000/svg">
<g clip-path="url(#clip0_2_263)">
<path d="M0.00012207 1.99939H29.1428V16.5707H14.5715L0.00012207 1.99939ZM0.00012207 16.5707H14.5715L29.1428 31.1421H0.00012207V16.5707ZM0.00012207 31.1421H14.5715V45.7134L0.00012207 31.1421Z" fill="#184E7F" fill-opacity="0.6"/>
<path d="M45.5861 13.4948H57.3661V17.2381H50.0447V22.4401H57.3661V26.1008H50.0447V32.7614H45.5861V13.4948ZM59.7881 19.4948H63.9994V22.2748C64.2194 21.3194 64.6694 20.5861 65.3481 20.0728C66.0441 19.5401 66.8167 19.2748 67.6601 19.2748C68.1007 19.2748 68.4681 19.3121 68.7607 19.3848V23.2934C68.3407 23.2428 67.9181 23.2154 67.4947 23.2108C66.3387 23.2108 65.4681 23.5861 64.8801 24.3388C64.2941 25.0728 63.9994 26.1734 63.9994 27.6421V32.7614H59.7901V19.4948H59.7881ZM75.4087 33.1194C74.1247 33.1194 73.0047 32.8161 72.0507 32.2108C71.1147 31.6054 70.3707 30.7461 69.9041 29.7334C69.4087 28.6701 69.1594 27.4668 69.1594 26.1281C69.1594 24.8068 69.4181 23.6134 69.9314 22.5501C70.4127 21.5228 71.1767 20.6541 72.1334 20.0454C73.1047 19.4401 74.2154 19.1368 75.4641 19.1368C76.3994 19.1368 77.2354 19.3394 77.9687 19.7428C78.7021 20.1474 79.2527 20.6981 79.6201 21.3941V19.4948H83.8034V32.7614H79.6201V30.8894C79.2527 31.5501 78.6841 32.0908 77.9134 32.5134C77.1427 32.9221 76.2814 33.1301 75.4087 33.1194ZM76.6201 29.6234C77.6287 29.6234 78.4087 29.2934 78.9594 28.6328C79.5101 27.9721 79.7854 27.1368 79.7854 26.1281C79.7854 25.1374 79.5101 24.3114 78.9594 23.6508C78.4087 22.9901 77.6287 22.6601 76.6201 22.6601C75.6647 22.6601 74.8954 22.9808 74.3081 23.6234C73.7394 24.2661 73.4547 25.1001 73.4547 26.1281C73.4547 27.1561 73.7394 27.9994 74.3081 28.6601C74.8954 29.3028 75.6661 29.6234 76.6201 29.6234ZM86.7487 19.4948H90.9601V21.4214C91.2547 20.7414 91.7307 20.1908 92.3907 19.7701C93.0707 19.3494 93.8594 19.1368 94.758 19.1368C96.8501 19.1368 98.2361 19.9528 98.9141 21.5868C99.2874 20.8461 99.8714 20.2334 100.593 19.8254C101.365 19.3608 102.252 19.1228 103.153 19.1368C106.291 19.1368 107.859 20.9341 107.859 24.5314V32.7614H103.621V25.3021C103.621 24.4041 103.455 23.7434 103.125 23.3208C102.795 22.8994 102.299 22.6874 101.639 22.6874C100.923 22.6874 100.373 22.9354 99.9874 23.4307C99.6021 23.9081 99.4094 24.7421 99.4094 25.9354V32.7614H95.1707V25.2747C95.1707 24.3761 95.0061 23.7241 94.6754 23.3208C94.3647 22.8994 93.8774 22.6874 93.218 22.6874C92.4834 22.6874 91.9234 22.9354 91.5381 23.4307C91.1527 23.9081 90.9601 24.7421 90.9601 25.9354V32.7614H86.7501V19.4948H86.7487ZM123.679 25.4401C123.679 26.0081 123.642 26.6234 123.567 27.2841H113.771C113.808 28.1468 114.101 28.8061 114.651 29.2661C115.202 29.7241 115.947 29.9541 116.881 29.9541C118.184 29.9541 119.01 29.5588 119.358 28.7701H123.487C123.284 30.0734 122.569 31.1274 121.339 31.9354C120.129 32.7241 118.642 33.1194 116.881 33.1194C114.606 33.1194 112.817 32.5041 111.513 31.2747C110.229 30.0448 109.587 28.3301 109.587 26.1281C109.587 24.6968 109.88 23.4581 110.467 22.4121C111.035 21.3674 111.909 20.5221 112.972 19.9901C114.055 19.4221 115.312 19.1368 116.745 19.1368C118.101 19.1368 119.303 19.4028 120.349 19.9354C121.413 20.4681 122.23 21.2108 122.798 22.1648C123.386 23.1201 123.679 24.2114 123.679 25.4401ZM119.521 24.6694C119.503 23.7888 119.256 23.1181 118.778 22.6601C118.302 22.2021 117.613 21.9721 116.714 21.9721C115.815 21.9721 115.1 22.2194 114.567 22.7154C114.054 23.1928 113.788 23.8434 113.769 24.6694H119.521ZM125.536 19.4948H129.747V22.2748C129.967 21.3194 130.417 20.5861 131.096 20.0728C131.755 19.5541 132.569 19.2728 133.408 19.2748C133.848 19.2748 134.216 19.3121 134.509 19.3848V23.2934C134.089 23.2428 133.666 23.2154 133.243 23.2108C132.087 23.2108 131.216 23.5861 130.628 24.3388C130.04 25.0728 129.747 26.1734 129.747 27.6421V32.7614H125.536V19.4948Z" fill="#184E7F" fill-opacity="0.6"/>
</g>
<defs>
<clipPath id="clip0_2_263">
<rect width="135" height="48" fill="white"/>
</clipPath>
</defs>
</svg>
