<svg width="45" height="45" viewBox="0 0 45 45" fill="none" xmlns="http://www.w3.org/2000/svg">
<g clip-path="url(#clip0_93_2157)">
<path d="M23.9063 8.43745C21.5391 8.43628 19.2319 9.18181 17.313 10.5679C15.3942 11.9541 13.9614 13.9101 13.2188 16.1578C13.1663 16.3395 13.0778 16.5088 12.9584 16.6555C12.8391 16.8023 12.6913 16.9234 12.5241 17.0117C12.3568 17.1 12.1734 17.1537 11.9849 17.1694C11.7965 17.1852 11.6067 17.1628 11.4271 17.1036C11.2475 17.0443 11.0816 16.9495 10.9395 16.8246C10.7974 16.6998 10.6819 16.5476 10.6 16.3771C10.5181 16.2066 10.4714 16.0214 10.4628 15.8324C10.4541 15.6435 10.4837 15.4547 10.5497 15.2774C11.5259 12.3294 13.4502 9.7872 16.0225 8.04724C18.5947 6.30727 21.6704 5.46733 24.77 5.65837C27.8697 5.8494 30.8189 7.06068 33.1581 9.10335C35.4972 11.146 37.0947 13.9053 37.7016 16.9509C39.8229 17.2374 41.7561 18.3195 43.1094 19.9781C44.4628 21.6366 45.1351 23.7475 44.9903 25.8832C44.8455 28.019 43.8943 30.0198 42.3295 31.4804C40.7647 32.9411 38.7031 33.7524 36.5625 33.7499H12.6563C12.2833 33.7499 11.9256 33.6018 11.6619 33.3381C11.3982 33.0743 11.25 32.7166 11.25 32.3437C11.25 31.9707 11.3982 31.613 11.6619 31.3493C11.9256 31.0856 12.2833 30.9374 12.6563 30.9374H36.5625C38.0543 30.9378 39.4852 30.3455 40.5404 29.2909C41.5955 28.2363 42.1885 26.8057 42.1889 25.3138C42.1893 23.822 41.597 22.3911 40.5424 21.336C39.4878 20.2808 38.0572 19.6878 36.5653 19.6874H36.4922C36.1445 19.6895 35.8084 19.5628 35.5487 19.3317C35.2891 19.1006 35.1242 18.7814 35.0859 18.4359C34.7781 15.6862 33.4678 13.1463 31.4054 11.3018C29.343 9.45733 26.6731 8.43756 23.9063 8.43745ZM0 21.0937C0 20.7207 0.148158 20.363 0.411881 20.0993C0.675604 19.8356 1.03329 19.6874 1.40625 19.6874H15.4688C15.8417 19.6874 16.1994 19.8356 16.4631 20.0993C16.7268 20.363 16.875 20.7207 16.875 21.0937C16.875 21.4666 16.7268 21.8243 16.4631 22.0881C16.1994 22.3518 15.8417 22.4999 15.4688 22.4999H1.40625C1.03329 22.4999 0.675604 22.3518 0.411881 22.0881C0.148158 21.8243 0 21.4666 0 21.0937ZM5.625 26.7187C5.625 26.3457 5.77316 25.988 6.03688 25.7243C6.3006 25.4606 6.65829 25.3124 7.03125 25.3124H32.3438C32.7167 25.3124 33.0744 25.4606 33.3381 25.7243C33.6018 25.988 33.75 26.3457 33.75 26.7187C33.75 27.0916 33.6018 27.4493 33.3381 27.7131C33.0744 27.9768 32.7167 28.1249 32.3438 28.1249H7.03125C6.65829 28.1249 6.3006 27.9768 6.03688 27.7131C5.77316 27.4493 5.625 27.0916 5.625 26.7187ZM0 37.9687C0 37.5957 0.148158 37.238 0.411881 36.9743C0.675604 36.7106 1.03329 36.5624 1.40625 36.5624H26.7188C27.0917 36.5624 27.4494 36.7106 27.7131 36.9743C27.9768 37.238 28.125 37.5957 28.125 37.9687C28.125 38.3416 27.9768 38.6993 27.7131 38.963C27.4494 39.2268 27.0917 39.3749 26.7188 39.3749H1.40625C1.03329 39.3749 0.675604 39.2268 0.411881 38.963C0.148158 38.6993 0 38.3416 0 37.9687Z" fill="#184E7F"/>
</g>
<defs>
<clipPath id="clip0_93_2157">
<rect width="45" height="45" fill="white"/>
</clipPath>
</defs>
</svg>
