<svg width="134" height="48" viewBox="0 0 134 48" fill="none" xmlns="http://www.w3.org/2000/svg">
<g clip-path="url(#clip0_2_245)">
<path fill-rule="evenodd" clip-rule="evenodd" d="M14.0837 24.6188C14.0837 17.7114 12.9243 14.8481 9.73696 14.8481C6.92578 14.8481 5.50582 16.8554 5.50582 23.8219C5.50582 30.6995 6.60704 33.5336 9.85278 33.5336C12.7217 33.5336 14.0837 31.5556 14.0837 24.6188ZM-6.10352e-05 24.4418C-6.10352e-05 16.6782 5.24499 13.6084 9.91092 13.6084C14.8951 13.6084 19.5896 16.6489 19.5896 23.9694C19.5896 31.7918 14.3445 34.7733 9.6786 34.7733C4.6946 34.7733 -6.10352e-05 31.5263 -6.10352e-05 24.4418Z" fill="#184E7F" fill-opacity="0.6"/>
<path fill-rule="evenodd" clip-rule="evenodd" d="M43.1913 24.9435L48.1466 24.6778C48.1466 21.1062 47.6833 19.8073 45.9444 19.8073C44.4663 19.8073 43.3071 21.2242 43.1913 24.9435ZM38.6127 26.6851C38.6127 21.5488 42.3507 18.6855 46.176 18.6855C50.1285 18.6855 52.6089 20.6746 52.7502 25.8787C52.753 25.9799 52.6722 26.0652 52.5724 26.0652H43.3733C43.2735 26.0652 43.1929 26.1505 43.1953 26.2519C43.325 30.9408 45.1136 32.2347 48.0597 32.2347C49.4977 32.2347 50.6571 31.8944 51.6273 31.456C51.6988 31.4236 51.7817 31.4426 51.8327 31.5035L52.218 31.9652C52.2762 32.0348 52.2755 32.1378 52.214 32.2041C51.1569 33.3396 49.0048 34.7733 46.176 34.7733C41.1337 34.7733 38.6127 31.7033 38.6127 26.6851Z" fill="#184E7F" fill-opacity="0.6"/>
<path fill-rule="evenodd" clip-rule="evenodd" d="M98.2864 26.9213C98.2864 20.9585 97.1564 19.8368 95.1856 19.8368C93.3598 19.8368 92.2878 21.1947 92.2878 26.2719C92.2878 32.3234 93.244 33.6219 95.3593 33.6219C97.0985 33.6219 98.2864 32.5889 98.2864 26.9213ZM87.4194 26.7738C87.4194 21.106 91.3603 18.6855 95.2727 18.6855C99.4747 18.6855 103.155 21.2537 103.155 26.6261C103.155 32.2937 99.2718 34.7736 95.2727 34.7736C91.0707 34.7736 87.4194 32.1755 87.4194 26.7738Z" fill="#184E7F" fill-opacity="0.6"/>
<path fill-rule="evenodd" clip-rule="evenodd" d="M115.571 26.9213C115.571 20.9585 114.441 19.8368 112.47 19.8368C110.645 19.8368 109.573 21.1947 109.573 26.2719C109.573 32.3234 110.529 33.6219 112.644 33.6219C114.383 33.6219 115.571 32.5889 115.571 26.9213ZM104.704 26.7738C104.704 21.106 108.645 18.6855 112.557 18.6855C116.759 18.6855 120.44 21.2537 120.44 26.6261C120.44 32.2937 116.557 34.7736 112.557 34.7736C108.356 34.7736 104.704 32.1755 104.704 26.7738Z" fill="#184E7F" fill-opacity="0.6"/>
<path fill-rule="evenodd" clip-rule="evenodd" d="M64.663 18.6856C62.5477 18.6856 60.635 19.6598 59.0993 20.7813H58.9832L59.0402 18.9202C59.0447 18.7774 58.924 18.6642 58.785 18.6801L54.7298 19.1484C54.6106 19.162 54.5204 19.2646 54.5204 19.3869V34.185C54.5204 34.3144 54.6233 34.419 54.7501 34.419H58.8983C59.0251 34.419 59.128 34.3144 59.128 34.185V21.8145C59.7655 21.6668 60.8088 21.4309 61.8233 21.4309C63.1852 21.4309 63.8229 21.9917 63.8229 23.7923V34.185C63.8229 34.3144 63.9258 34.419 64.0525 34.419H68.2298C68.3565 34.419 68.4596 34.3144 68.4596 34.185V22.6413C68.4596 19.9845 67.1265 18.6856 64.663 18.6856Z" fill="#184E7F" fill-opacity="0.6"/>
<path fill-rule="evenodd" clip-rule="evenodd" d="M80.8918 31.7918C80.4281 31.969 79.6456 32.4414 78.4575 32.4414C76.2551 32.4414 75.096 30.9358 75.096 26.3014C75.096 21.4306 76.5449 19.8662 78.6313 19.8662C79.7037 19.8662 80.3991 20.4861 80.8918 21.1059V31.7918ZM85.4994 15.7927C85.4994 14.2669 85.5504 12.865 85.5774 12.2896C85.5852 12.1213 85.4448 11.986 85.2802 12.001L81.1066 12.4838C80.9849 12.4949 80.8918 12.5986 80.8918 12.7232V16.8555C80.8918 17.918 80.9497 19.0102 80.9497 19.0102C80.3412 18.833 79.5298 18.6855 78.7475 18.6855C74.2266 18.6855 70.3432 21.1357 70.3432 27.2757C70.3432 32.6479 73.1541 34.7733 76.0232 34.7733C78.0517 34.7733 79.6746 33.9468 80.9208 32.8548H81.0366L80.9778 34.4841C80.9711 34.6576 81.1199 34.7949 81.2885 34.7706L85.2644 34.3184C85.3992 34.2994 85.4994 34.1818 85.4994 34.0432V15.7927Z" fill="#184E7F" fill-opacity="0.6"/>
<path fill-rule="evenodd" clip-rule="evenodd" d="M131.209 18.6855C129.529 18.6855 127.877 19.9845 126.979 20.9585H126.863L126.919 18.9748C126.924 18.806 126.781 18.6717 126.616 18.6905L122.609 19.1486C122.49 19.1622 122.4 19.2648 122.4 19.3873V34.1412C122.4 34.2946 122.522 34.419 122.672 34.419H126.735C126.885 34.419 127.008 34.2946 127.008 34.1412V22.1689C127.413 21.785 128.08 21.4011 128.601 21.4011C128.862 21.4011 129.036 21.4604 129.21 21.785C129.76 22.7001 130.196 23.2289 131.441 23.2289C132.572 23.2289 133.582 22.3164 133.582 20.8995C133.582 19.4529 132.6 18.6855 131.209 18.6855Z" fill="#184E7F" fill-opacity="0.6"/>
<path fill-rule="evenodd" clip-rule="evenodd" d="M28.65 33.5925C27.6646 33.5925 26.8823 33.1496 26.3604 32.5298V21.7849C26.8242 21.6079 27.5488 21.2535 28.7079 21.2535C30.9103 21.2535 32.1565 22.7294 32.1565 26.9506C32.1565 32.3528 30.9393 33.5925 28.65 33.5925ZM31.2291 18.6856C29.2004 18.6856 27.5779 19.6597 26.3604 20.7224H26.2157L26.2716 18.9561C26.2767 18.7952 26.1404 18.667 25.9836 18.6852L21.9622 19.1483C21.8429 19.1621 21.7529 19.2649 21.7529 19.3872V40.7614C21.7529 40.9046 21.8752 41.0162 22.015 41.0001L26.1513 40.5241C26.2705 40.5105 26.3604 40.4077 26.3604 40.2854V36.2788C26.3604 35.2458 26.3317 34.4783 26.3317 34.4783C26.9692 34.6552 27.9256 34.7732 28.5341 34.7732C33.3736 34.7732 36.9089 32.0871 36.9089 25.9471C36.9089 20.5452 33.9821 18.6856 31.2291 18.6856Z" fill="#184E7F" fill-opacity="0.6"/>
</g>
<defs>
<clipPath id="clip0_2_245">
<rect width="134" height="48" fill="white"/>
</clipPath>
</defs>
</svg>
